<?xml version="1.0" encoding="utf-8"?>
<!-- Generator: Adobe Illustrator 21.0.1, SVG Export Plug-In . SVG Version: 6.00 Build 0)  -->
<svg version="1.1" id="Layer_1" xmlns="http://www.w3.org/2000/svg" xmlns:xlink="http://www.w3.org/1999/xlink" x="0px" y="0px"
	 viewBox="0 0 792 143" style="enable-background:new 0 0 792 143;" xml:space="preserve">
<style type="text/css">
	.st0{fill:#FFFFFF;}
</style>
<title>Untitled-3</title>
<g>
	<path class="st0" d="M259.4,62.9c-4.7-2.5-10.1-3.8-15.4-3.8c-8,0-12.1,1.5-12.1,4.3c0,1.7,1.5,2.8,4.5,3.3
		c4.2,0.4,8.3,0.7,12.4,1.1c4.3,0.2,8.7,1.3,12.7,3.2c2.8,1.6,4.3,4.5,4.2,7.7c0.1,3.8-1.9,7.2-5.2,9c-4.6,2.4-9.9,3.5-15.1,3.2
		c-7.9,0.4-15.8-1.9-22.3-6.3l3.9-5c5.4,3.7,11.9,5.4,18.4,5.2c3.3,0.2,6.4-0.4,9.5-1.6c1.9-0.6,3.2-2.2,3.4-4.2
		c0-1.9-1.4-3.3-4.2-4.1c-2.4-0.5-4.7-0.8-7.1-0.9c-5-0.2-8.1-0.4-9.2-0.5c-3.5-0.1-6.9-1.1-9.9-2.9c-2.1-1.5-3.4-4-3.2-6.5
		c0-3.5,2-6.6,5.1-8.2c4.4-2.3,9.4-3.3,14.3-3.1c7-0.3,13.9,1.5,19.9,5.3L259.4,62.9z"/>
	<path class="st0" d="M326.9,60.3h-17.3v29.8h-7.1V60.3h-17.3V54h41.7V60.3L326.9,60.3z"/>
	<path class="st0" d="M392.5,90.2h-8.1l-9.5-13.3h-18v13.3h-7.1V53.9h29.3c3.4-0.2,6.6,1,9.2,3.2c2.3,2.2,3.6,5.2,3.5,8.4
		c0.4,5.5-3.6,10.4-9,11.1L392.5,90.2z M378.1,70.5c4.3,0,6.4-1.7,6.4-4.9c0-3.5-2.3-5.2-6.8-5.2H357v10.2H378.1L378.1,70.5z"/>
	<path class="st0" d="M425,90.2h-7.1V53.9h7.1V90.2z"/>
	<path class="st0" d="M476.1,53.9c5.5-0.3,11,1.5,15.3,5c3.8,3.2,5.9,7.9,5.7,12.8c-0.2,5.1-2.4,10.1-6,13.6
		c-1.5,1.5-3.4,2.6-5.4,3.3c-2.7,1-5.5,1.5-8.4,1.5h-24.6V53.9L476.1,53.9L476.1,53.9z M477.7,83.9c3.2,0.1,6.2-1.1,8.5-3.3
		c2.2-2.2,3.5-5.1,3.4-8.3c0.1-3.3-1.2-6.4-3.6-8.7c-2.6-2.3-6-3.5-9.4-3.3h-16.9v23.5H477.7L477.7,83.9z"/>
	<path class="st0" d="M561.2,90.2h-39V53.9h37.7v6.3h-30.5V68h21.3v6.3h-21.3v9.3h31.9L561.2,90.2L561.2,90.2z"/>
	<path class="st0" d="M620.7,90.2h-35.1V53.9h7.1v29.9h28V90.2L620.7,90.2z"/>
	<path class="st0" d="M650.7,90.2h-7.1V53.9h7.1V90.2z"/>
	<path class="st0" d="M720.7,90.2h-10.6l-24.6-30.2v30.2h-7.1V53.9H689l24.6,30.2V53.9h7.1V90.2L720.7,90.2z"/>
	<path class="st0" d="M787.4,90.2h-39V53.9H786v6.3h-30.6V68h21.3v6.3h-21.3v9.3h32V90.2L787.4,90.2z"/>
	<g>
		<path class="st0" d="M112.8,112.8c-3.7-8.8-8.9-16.8-15.5-23.7c-2.3-2.3-4.8-4.6-7.5-6.8c4.3-0.2,8.7-0.8,13-1.6
			c0.4-1.9,0.7-3.8,0.9-5.7h-0.3l0.2-0.1c0,0-38.4-6.7-69.1-29.8c1.2-2.5,3-4.6,5.1-6.3c5.1-4.1,11.6-6.1,18.1-5.9
			c9.3,0,16.3,2.7,21.3,8.1c2.8,2.8,4.7,7.8,5.9,15.2l23.6-4.2c-1.9-10.9-7.9-20.6-16.8-27.1c-8.9-6.4-20.2-9.7-33.6-9.7
			c-14.2,0-26,3.8-35.5,11.3c-1.5,1.2-2.9,2.5-4.3,3.9c-2.9-3.3-5.5-6.7-7.9-10.4c-2.4,3.7-4.3,7.4-6.1,11.4
			c3.7,8.8,8.9,16.8,15.5,23.7c2.3,2.3,4.8,4.5,7.5,6.8c-4.3,0.2-8.7,0.8-13,1.6c-0.4,1.9-0.7,3.8-0.9,5.7l0.3-0.1l-0.1,0.1
			c0,0,38.4,6.7,69,29.8c-1.2,2.5-3,4.6-5.1,6.3c-5.1,4.1-11.6,6.1-18.1,5.9c-9.3,0-16.3-2.7-21.3-8.1c-2.8-2.8-4.7-7.8-5.9-15.2
			L8.7,92.1c1.9,10.9,7.9,20.6,16.8,27.1c8.9,6.4,20.2,9.7,33.6,9.7c14.2,0,26-3.8,35.5-11.3c1.5-1.2,2.9-2.5,4.3-3.9
			c2.9,3.3,5.5,6.7,7.9,10.4C109,120.5,111,116.7,112.8,112.8z"/>
	</g>
	<rect x="164.6" y="15.1" class="st0" width="6.7" height="113.9"/>
</g>
</svg>
